<?xml version="1.0" encoding="utf-8"?>
<!-- Generator: Adobe Illustrator 19.0.0, SVG Export Plug-In . SVG Version: 6.00 Build 0)  -->
<svg version="1.1" id="Calque_1" xmlns="http://www.w3.org/2000/svg" xmlns:xlink="http://www.w3.org/1999/xlink" x="0px" y="0px"
	 viewBox="0 0 700.7 267" style="enable-background:new 0 0 700.7 267;" xml:space="preserve">
<style type="text/css">
	.st0{fill:url(#XMLID_7_);}
	.st1{fill:#FFFFFF;}
</style>
<linearGradient id="XMLID_7_" gradientUnits="userSpaceOnUse" x1="0" y1="133.5" x2="700.67" y2="133.5">
	<stop  offset="0" style="stop-color:#FF422A"/>
	<stop  offset="1" style="stop-color:#FFEBD4"/>
</linearGradient>
<path id="XMLID_5_" class="st0" d="M700.7,133L700.7,133c0-0.4,0-0.9,0-1.3c-0.2-17.4-3.7-34.3-10.5-50.2c-5.5-13-13-25-22.2-35.6
	c-0.1-0.2-0.3-0.3-0.4-0.5c-0.5-0.5-0.9-1.1-1.4-1.6c-1.4-1.6-2.9-3.1-4.5-4.7c-12.2-12.2-26.5-21.8-42.4-28.5
	c-16.5-7-33.9-10.5-51.9-10.5c-18,0-35.5,3.5-51.9,10.5c-15.9,6.7-30.1,16.3-42.4,28.5c-5.2,5.2-10,10.8-14.2,16.8
	c-5.5,7.7-10.2,15.9-14,24.7c-0.1,0.3-0.4,0.6-0.5,0.9c-6.9,16.3-10.7,33.7-10.7,51.5h0c0,0.1,0,0.3,0,0.4c0,46-37.3,83.3-83.3,83.3
	c-46,0-83.3-37.3-83.3-83.3c0-0.1,0-0.3,0-0.4h-0.3c0-17.8-3.6-35.2-10.5-51.5c-0.1-0.3-0.3-0.6-0.4-0.9c-0.2-0.5-0.5-1.1-0.7-1.6
	c-0.5-1.1-1-2.2-1.5-3.2c-0.6-1.3-1.3-2.7-2-4c-0.3-0.7-0.7-1.3-1-2c-0.3-0.6-0.7-1.3-1.1-1.9c-0.6-1-1.2-2-1.8-3.1
	c-0.2-0.4-0.5-0.8-0.7-1.2c0-0.1-0.1-0.2-0.2-0.3c0,0,0,0,0-0.1c-0.2-0.3-0.4-0.6-0.6-0.9c-0.2-0.3-0.4-0.6-0.6-1
	c-1.2-1.8-2.4-3.6-3.7-5.4c0,0,0,0,0-0.1c0,0,0,0,0,0c0,0,0,0,0,0l0,0c0,0,0,0,0-0.1V56h0.1c0,0-0.1-0.2-0.1-0.2v0c0,0,0,0,0,0v0
	c-0.3-0.4-0.5-0.8-0.8-1.1c0-0.1-0.1-0.2-0.2-0.2c-0.7-0.9-1.3-1.8-2-2.7c-0.2-0.2-0.3-0.5-0.5-0.7c-0.8-1-1.6-2-2.4-3
	c-0.4-0.5-0.8-1-1.2-1.5c-0.5-0.6-1.1-1.3-1.7-1.9c-1.1-1.2-2.2-2.4-3.3-3.6c-0.2-0.2-0.5-0.4-0.7-0.6l0,0c-0.3-0.2-0.6-0.5-0.8-0.8
	c0,0,0,0,0,0c-0.1-0.1-0.2-0.3-0.3-0.5h0c-0.5-0.5-1.1-1-1.6-1.5c0,0-0.1-0.1-0.1-0.1c-0.9-0.8-1.8-1.7-2.7-2.5
	c-0.1-0.1-0.3-0.3-0.4-0.4c-0.8-0.7-1.5-1.4-2.3-2.1c-3.2-2.8-6.6-5.4-10-7.9c-1.5-1.1-3-2.1-4.5-3.1c-6.5-4.2-13.5-7.9-20.7-11
	c-8.4-3.5-16.9-6.2-25.7-7.9c-1.3-0.3-2.5-0.5-3.8-0.7c-1.3-0.2-2.7-0.4-4-0.6c-0.2,0-0.5-0.1-0.7-0.1c-0.8-0.1-1.6-0.2-2.4-0.3
	c-0.3,0-0.5-0.1-0.8-0.1c-0.8-0.1-1.6-0.2-2.5-0.2c-0.4,0-0.8-0.1-1.2-0.1c-0.3,0-0.6,0-0.9-0.1c-0.9-0.1-1.9-0.1-2.8-0.2
	c-0.6,0-1.1,0-1.7-0.1C137.5,0.1,136.3,0,135,0c-0.4,0-0.9,0-1.3,0h-0.3c-18,0-35.5,3.6-51.9,10.5c-15.9,6.7-30.1,16.3-42.4,28.6
	C26.8,51.3,17.2,65.6,10.5,81.5C3.5,97.9,0,115.4,0,133.4c0,18,3.5,35.4,10.5,51.9c6.7,15.9,16.3,30.1,28.6,42.4
	c12.2,12.2,26.5,22,42.4,28.7c16.5,7,33.9,10.6,51.9,10.6c0.1,0,0.3,0,0.3,0v-50h-0.3c-46,0-83.3-37.5-83.3-83.5
	c0-46,37.3-83.5,83.3-83.5h0.3c45.7,0,83,37.2,83,83v0.5c0,17.9,3.7,35.4,10.7,51.8c0.1,0.3,0.3,0.6,0.5,0.9c0,0,0,0,0,0.1
	c0,0,0,0,0,0.1c3.8,8.7,8.4,16.9,13.9,24.5c0,0,0,0,0,0c4.3,5.9,9,11.5,14.2,16.7c12.2,12.2,26.5,21.8,42.4,28.6
	c16.5,7,33.9,10.5,51.9,10.5c18,0,35.5-3.5,51.9-10.5c15.9-6.7,30.1-16.3,42.4-28.6c5.2-5.2,9.8-10.7,14-16.5v0c0,0,0,0,0-0.1
	c0-0.1,0.1-0.1,0.1-0.2c0,0,0,0,0,0c0-0.1,0.1-0.1,0.2-0.2c5.4-7.6,10-15.8,13.8-24.5c0.1-0.3,0.3-0.6,0.4-0.9
	c7-16.5,10.5-33.9,10.5-51.9V133h0.3c0.2-45.8,37.4-82.9,83.3-82.9c45.9,0,83.1,36.9,83.3,82.7"/>
<circle id="XMLID_6_" class="st1" cx="133.2" cy="133.7" r="83.8"/>
<circle id="XMLID_3_" class="st1" cx="567.2" cy="133.7" r="83.8"/>
</svg>
