<?xml version="1.0" encoding="utf-8"?>
<!-- Generator: Adobe Illustrator 19.0.0, SVG Export Plug-In . SVG Version: 6.00 Build 0)  -->
<svg version="1.1" id="separator_1_" xmlns="http://www.w3.org/2000/svg" xmlns:xlink="http://www.w3.org/1999/xlink" x="0px"
	 y="0px" viewBox="358 72.1 1675 417.9" style="enable-background:new 358 72.1 1675 417.9;" xml:space="preserve">
<style type="text/css">
	.st0{opacity:0.44;fill:#FFFFFF;enable-background:new    ;}
	.st1{fill:#FFFFFF;}
</style>
<path class="st0" d="M2034.8,489.2V153.1c-111.2,6.7-235.2,40.7-370.9,115.4c-4.1,2.2-8,4.4-11.9,6.5
	c-131.1,86.9-310.4,133.1-499,116c-100.5-9.1-192.7-35.3-271.7-74l0,0c0,0-0.3-0.1-0.7-0.4c-11.9-5.9-23.5-12-34.9-18.5
	c-73.5-37.9-254.8-126.4-486.6-204.6v395.7L2034.8,489.2z"/>
<path class="st1" d="M2036.2,490V171.9c-104.9,18.4-217,63.1-333.7,145.4c-3.7,2.6-7.2,5-10.7,7.5C1576,423,1405.5,485,1215.5,485
	c-101.2,0-197-17.6-281.9-49l0,0c0,0-0.3-0.1-0.7-0.3c-12.9-4.8-25.4-9.8-37.8-15.2C813.8,388.7,610.5,314,358,256.6V490H2036.2z"/>
</svg>
