<?xml version="1.0" encoding="utf-8"?>
<!-- Generator: Adobe Illustrator 19.0.0, SVG Export Plug-In . SVG Version: 6.00 Build 0)  -->
<svg version="1.1" id="separator" xmlns="http://www.w3.org/2000/svg" xmlns:xlink="http://www.w3.org/1999/xlink" x="0px" y="0px"
	 viewBox="-219 116.6 1953 329.4" style="enable-background:new -219 116.6 1953 329.4;" xml:space="preserve">
<style type="text/css">
	.st0{opacity:0.3;fill:#FFFFFF;enable-background:new    ;}
	.st1{fill:#FFFFFF;}
</style>
<path class="st0" d="M1734.4,446.2v-81.9c-16-1.2-32.1-2.1-48.5-2.7c-219.1-7.3-207.7,4.3-466.7,35.9s-388.2,36-590.5-70.9
	s-252.4-138.9-496.2-192c-100.9-21.9-232.3-18.4-352-6.8v318.4H1734.4z"/>
<path class="st1" d="M1544.7,372.9c-197.4,0-186.5,10.1-417,46.2S781.4,463,591.6,372.9c-190-90.1-237.4-117.5-460.7-157.9
	C29,196.5-104.3,207.1-219,224v221.9h1953.4v-56.8C1678.3,379.9,1613,372.9,1544.7,372.9z"/>
</svg>
