<?xml version="1.0" encoding="utf-8"?>
<!-- Generator: Adobe Illustrator 19.0.0, SVG Export Plug-In . SVG Version: 6.00 Build 0)  -->
<svg version="1.1" id="Calque_1" xmlns="http://www.w3.org/2000/svg" xmlns:xlink="http://www.w3.org/1999/xlink" x="0px" y="0px"
	 viewBox="0 0 960 560" style="enable-background:new 0 0 960 560;" xml:space="preserve">
<style type="text/css">
	.st0{fill:none;stroke:#894F87;stroke-width:7;stroke-miterlimit:10;}
	.st1{fill:none;stroke:#894F87;stroke-width:5;stroke-miterlimit:10;}
</style>
<circle id="XMLID_1_" class="st0" cx="152.7" cy="143.6" r="27.4"/>
<circle id="XMLID_5_" class="st0" cx="850.6" cy="119.5" r="23.9"/>
<circle id="XMLID_18_" class="st0" cx="520.4" cy="75.7" r="28.7"/>
<circle id="XMLID_4_" class="st0" cx="687.1" cy="356" r="20.5"/>
<circle id="XMLID_2_" class="st1" cx="767.1" cy="256" r="8.5"/>
<circle id="XMLID_3_" class="st0" cx="251.5" cy="118.1" r="13.4"/>
<circle id="XMLID_10_" class="st0" cx="896.6" cy="325.9" r="22.5"/>
<circle id="XMLID_16_" class="st0" cx="95.5" cy="458.1" r="19.1"/>
<line id="XMLID_6_" class="st0" x1="212.7" y1="442" x2="190.3" y2="464.3"/>
<line id="XMLID_11_" class="st0" x1="873.2" y1="466.5" x2="828.7" y2="511"/>
<line id="XMLID_21_" class="st0" x1="718.7" y1="54.5" x2="763.2" y2="99"/>
<line id="XMLID_7_" class="st0" x1="212.7" y1="464.3" x2="190.3" y2="442"/>
<line id="XMLID_20_" class="st0" x1="173.6" y1="280" x2="128.3" y2="325.3"/>
<line id="XMLID_19_" class="st0" x1="173.6" y1="325.3" x2="128.3" y2="280"/>
<line id="XMLID_23_" class="st0" x1="85.1" y1="55.5" x2="66.8" y2="73.8"/>
<line id="XMLID_22_" class="st0" x1="85.1" y1="73.8" x2="66.8" y2="55.5"/>
<line id="XMLID_12_" class="st0" x1="260" y1="213.2" x2="215.6" y2="168.7"/>
<line id="XMLID_13_" class="st0" x1="359.8" y1="444.4" x2="394.5" y2="409.6"/>
<line id="XMLID_9_" class="st0" x1="826.6" y1="156.8" x2="799.9" y2="183.5"/>
<line id="XMLID_17_" class="st0" x1="425.6" y1="63.8" x2="398.9" y2="90.5"/>
<line id="XMLID_8_" class="st0" x1="826.6" y1="183.5" x2="799.9" y2="156.8"/>
<line id="XMLID_15_" class="st0" x1="793.2" y1="413.2" x2="766.3" y2="440.1"/>
<line id="XMLID_14_" class="st0" x1="793.2" y1="440.1" x2="766.3" y2="413.2"/>
</svg>
