<?xml version="1.0" encoding="utf-8"?>
<!-- Generator: Adobe Illustrator 19.0.0, SVG Export Plug-In . SVG Version: 6.00 Build 0)  -->
<svg version="1.1" xmlns="http://www.w3.org/2000/svg" xmlns:xlink="http://www.w3.org/1999/xlink" x="0px" y="0px"
	 viewBox="0 0 505.8 602.1" style="enable-background:new 0 0 505.8 602.1;" xml:space="preserve">
<style type="text/css">
	.st0{fill:#327BFF;}
</style>
<g id="Calque_2">
</g>
<g id="Calque_3">
	<circle id="XMLID_2_" class="st0" cx="159" cy="167.3" r="10.7"/>
	<circle id="XMLID_15_" class="st0" cx="188" cy="143.3" r="10.7"/>
	<circle id="XMLID_16_" class="st0" cx="227" cy="122.3" r="10.7"/>
	<circle id="XMLID_6_" class="st0" cx="133" cy="203.3" r="10.7"/>
	<circle id="XMLID_8_" class="st0" cx="115" cy="250.3" r="10.7"/>
	<circle id="XMLID_9_" class="st0" cx="104" cy="304.3" r="10.7"/>
	<circle id="XMLID_10_" class="st0" cx="109" cy="355.3" r="10.7"/>
	<circle id="XMLID_11_" class="st0" cx="126" cy="402.3" r="10.7"/>
	<circle id="XMLID_12_" class="st0" cx="151" cy="441.3" r="10.7"/>
	<circle id="XMLID_13_" class="st0" cx="183" cy="466.3" r="10.7"/>
	<circle id="XMLID_14_" class="st0" cx="221" cy="480.3" r="10.7"/>
	<circle id="XMLID_26_" class="st0" cx="356.8" cy="173.5" r="10.7"/>
	<circle id="XMLID_25_" class="st0" cx="328.2" cy="143.8" r="10.7"/>
	<circle id="XMLID_24_" class="st0" cx="290.3" cy="121.8" r="10.7"/>
	<circle id="XMLID_23_" class="st0" cx="379" cy="208.5" r="10.7"/>
	<circle id="XMLID_22_" class="st0" cx="394.1" cy="256.5" r="10.7"/>
	<circle id="XMLID_21_" class="st0" cx="401.7" cy="311.1" r="10.7"/>
	<circle id="XMLID_20_" class="st0" cx="393.6" cy="361.7" r="10.7"/>
	<circle id="XMLID_19_" class="st0" cx="373.7" cy="407.5" r="10.7"/>
	<circle id="XMLID_18_" class="st0" cx="346.3" cy="444.9" r="10.7"/>
	<circle id="XMLID_17_" class="st0" cx="312.8" cy="467.9" r="10.7"/>
	<circle id="XMLID_7_" class="st0" cx="274" cy="479.5" r="10.7"/>
	<circle id="XMLID_48_" class="st0" cx="134.9" cy="132.9" r="13.5"/>
	<circle id="XMLID_47_" class="st0" cx="171.3" cy="102.7" r="13.5"/>
	<circle id="XMLID_46_" class="st0" cx="220.4" cy="76.3" r="13.5"/>
	<circle id="XMLID_45_" class="st0" cx="102.2" cy="178.1" r="13.5"/>
	<circle id="XMLID_44_" class="st0" cx="79.6" cy="237.2" r="13.5"/>
	<circle id="XMLID_43_" class="st0" cx="65.7" cy="305.1" r="13.5"/>
	<circle id="XMLID_42_" class="st0" cx="72" cy="369.2" r="13.5"/>
	<circle id="XMLID_41_" class="st0" cx="93.4" cy="428.3" r="13.5"/>
	<circle id="XMLID_40_" class="st0" cx="124.8" cy="477.4" r="13.5"/>
	<circle id="XMLID_39_" class="st0" cx="165.1" cy="508.8" r="13.5"/>
	<circle id="XMLID_38_" class="st0" cx="212.8" cy="526.4" r="13.5"/>
	<circle id="XMLID_37_" class="st0" cx="383.6" cy="140.7" r="13.5"/>
	<circle id="XMLID_36_" class="st0" cx="347.6" cy="103.4" r="13.5"/>
	<circle id="XMLID_35_" class="st0" cx="299.9" cy="75.7" r="13.5"/>
	<circle id="XMLID_34_" class="st0" cx="411.5" cy="184.7" r="13.5"/>
	<circle id="XMLID_33_" class="st0" cx="430.4" cy="245" r="13.5"/>
	<circle id="XMLID_32_" class="st0" cx="440" cy="313.7" r="13.5"/>
	<circle id="XMLID_31_" class="st0" cx="429.8" cy="377.3" r="13.5"/>
	<circle id="XMLID_30_" class="st0" cx="404.8" cy="434.9" r="13.5"/>
	<circle id="XMLID_29_" class="st0" cx="370.4" cy="481.9" r="13.5"/>
	<circle id="XMLID_28_" class="st0" cx="328.3" cy="510.8" r="13.5"/>
	<circle id="XMLID_27_" class="st0" cx="279.5" cy="525.4" r="13.5"/>
	<circle id="XMLID_70_" class="st0" cx="104.2" cy="89.1" r="17"/>
	<circle id="XMLID_69_" class="st0" cx="150.1" cy="51" r="17"/>
	<circle id="XMLID_68_" class="st0" cx="211.9" cy="17.7" r="17"/>
	<circle id="XMLID_67_" class="st0" cx="63" cy="146.1" r="17"/>
	<circle id="XMLID_66_" class="st0" cx="34.4" cy="220.6" r="17"/>
	<circle id="XMLID_65_" class="st0" cx="17" cy="306.2" r="17"/>
	<circle id="XMLID_64_" class="st0" cx="24.9" cy="387" r="17"/>
	<circle id="XMLID_63_" class="st0" cx="51.9" cy="461.5" r="17"/>
	<circle id="XMLID_62_" class="st0" cx="91.5" cy="523.3" r="17"/>
	<circle id="XMLID_61_" class="st0" cx="142.2" cy="562.9" r="17"/>
	<circle id="XMLID_60_" class="st0" cx="202.4" cy="585.1" r="17"/>
	<circle id="XMLID_59_" class="st0" cx="417.6" cy="98.9" r="17"/>
	<circle id="XMLID_58_" class="st0" cx="372.2" cy="51.9" r="17"/>
	<circle id="XMLID_57_" class="st0" cx="312.1" cy="17" r="17"/>
	<circle id="XMLID_56_" class="st0" cx="452.8" cy="154.4" r="17"/>
	<circle id="XMLID_55_" class="st0" cx="476.7" cy="230.5" r="17"/>
	<circle id="XMLID_54_" class="st0" cx="488.8" cy="317" r="17"/>
	<circle id="XMLID_53_" class="st0" cx="475.8" cy="397.1" r="17"/>
	<circle id="XMLID_52_" class="st0" cx="444.3" cy="469.8" r="17"/>
	<circle id="XMLID_51_" class="st0" cx="401" cy="529" r="17"/>
	<circle id="XMLID_50_" class="st0" cx="347.9" cy="565.4" r="17"/>
	<circle id="XMLID_49_" class="st0" cx="286.4" cy="583.8" r="17"/>
</g>
<g id="Calque_1">
</g>
</svg>
